<svg xmlns="http://www.w3.org/2000/svg" width="62.189" height="20.127" viewBox="0 0 62.189 20.127"><defs><style>.a{opacity:0.2;}.b{fill:rgba(0,0,0,0.68);}</style></defs><g class="a" transform="translate(0 0)"><path d="M438.545,130.21h-5.038l3.151-19.483H441.7Z" transform="translate(-411.596 -110.374)"/><path d="M580.291,105.877a12.416,12.416,0,0,0-4.518-.829c-4.975,0-8.478,2.653-8.5,6.446-.041,2.8,2.508,4.353,4.415,5.286,1.949.953,2.611,1.576,2.611,2.426-.02,1.305-1.575,1.907-3.025,1.907a10.026,10.026,0,0,1-4.727-1.036l-.663-.311-.7,4.374a15.332,15.332,0,0,0,5.619,1.037c5.286,0,8.727-2.612,8.768-6.654.02-2.218-1.326-3.917-4.229-5.306-1.762-.891-2.841-1.493-2.841-2.4.021-.829.913-1.679,2.9-1.679a8.559,8.559,0,0,1,3.753.746l.456.207.685-4.207Z" transform="translate(-535.08 -105.048)"/><path d="M798.316,123.308c.415-1.119,2.011-5.451,2.011-5.451-.021.042.414-1.14.663-1.865l.352,1.679s.954,4.664,1.161,5.638Zm6.218-12.581h-3.9A2.486,2.486,0,0,0,798,112.343l-7.483,17.866h5.286l1.057-2.923h6.468c.145.684.6,2.923.6,2.923H808.6l-4.064-19.483Z" transform="translate(-746.41 -110.374)"/><path d="M178.273,110.727l-4.934,13.286-.539-2.694a14.912,14.912,0,0,0-6.965-8.167l4.519,17.038h5.327l7.918-19.462h-5.327Z" transform="translate(-160.57 -110.374)"/><path class="b" d="M89.354,110.727H81.249l-.083.394c6.323,1.617,10.51,5.514,12.23,10.2l-1.762-8.954a2.085,2.085,0,0,0-2.28-1.638Z" transform="translate(-81.166 -110.374)"/></g></svg>